<svg xmlns="http://www.w3.org/2000/svg" xmlns:xlink="http://www.w3.org/1999/xlink" xml:space="preserve" version="1.1" style="shape-rendering:geometricPrecision;text-rendering:geometricPrecision;image-rendering:optimizeQuality;" viewBox="0 0 508 635" x="0px" y="0px" fill-rule="evenodd" clip-rule="evenodd"><defs><style type="text/css">

    .fil0 {fill:black}

  </style></defs><g><path class="fil0" d="M350 119c0,1 -1,1 -2,2 0,0 -2,1 -5,2 -3,1 -8,3 -12,5 -4,2 -10,5 -13,6 -2,1 -5,2 -5,3 -1,0 -1,1 -2,1 0,0 -2,1 -4,3 -2,2 -3,3 -4,3 -1,0 -9,6 -14,12 -3,2 -4,4 -4,4 0,-1 16,-32 17,-34 2,-1 2,-3 0,-4 0,0 -2,0 -7,2 -3,1 -7,2 -8,3 -1,1 -3,2 -5,3 -2,1 -3,1 -7,4 -1,2 -3,3 -3,3 -1,0 -2,1 -3,2 -2,1 -3,2 -3,2 -1,0 -1,0 -1,1 0,1 -6,6 -9,9 -4,2 -6,4 -14,12 -4,4 -4,4 -4,2 0,-1 2,-6 4,-9 2,-4 3,-8 4,-9 0,-1 1,-3 2,-3 0,-1 1,-4 2,-6 1,-2 2,-5 3,-6 1,-1 2,-2 3,-3 3,-4 0,-7 -4,-4 -1,1 -2,1 -2,2 0,0 -1,0 -1,0 -1,0 -2,1 -4,3 -1,1 -3,3 -4,3 -1,0 -2,1 -2,1 0,0 0,1 -1,1 -1,1 -3,2 -3,2 -1,1 -4,3 -6,4 -5,3 -11,9 -16,15 -5,5 -7,8 -12,13 -3,4 -4,4 -4,2 0,-1 1,-1 1,-1 1,0 2,-2 2,-5 0,-2 1,-4 2,-4 1,-1 2,-4 3,-6 1,-1 2,-3 2,-3 0,0 0,0 0,-1 0,-1 1,-2 1,-2 1,-1 2,-2 2,-4 1,-4 6,-12 9,-15 4,-4 4,-4 2,-6 -2,-1 -5,0 -9,3 -2,1 -4,3 -4,3 -1,0 -1,0 -1,1 0,0 -1,1 -1,0 -1,0 -2,3 -2,4 0,0 0,0 -1,0 0,0 -1,1 0,1 0,0 -1,1 -2,2 -5,5 -19,18 -21,22 -2,2 -4,5 -6,7 -2,2 -4,5 -5,8 -2,3 -4,7 -6,8l-3 3 1 -3c0,-7 1,-16 2,-19 0,-2 1,-5 1,-7 0,-2 1,-6 2,-9 1,-7 1,-8 -3,-8 -2,1 -7,5 -9,9 -2,3 -7,13 -8,17 -1,2 -2,4 -2,4 0,0 -1,0 0,0 0,1 0,1 -1,2 0,0 -2,3 -3,6 -1,3 -4,8 -5,10 -2,2 -3,5 -3,5 0,1 -1,3 -3,5 -1,1 -2,3 -3,4 0,1 -1,2 -1,2 0,0 0,0 0,0 0,1 0,2 -1,2 -1,0 -2,2 -3,4 -1,1 -2,3 -3,4 -1,1 -2,2 -2,3 -3,4 -10,11 -14,13 -2,1 -4,2 -4,2 -1,1 -14,7 -15,7 0,0 -1,0 -2,0 -2,1 -16,5 -19,6 -2,0 -3,0 -4,0 -1,-1 -5,-1 -8,0 -4,0 -7,0 -7,0 -1,0 -1,-3 -1,-5 -1,-4 -9,-6 -15,-5 -5,1 -9,3 -11,6 -2,2 -2,3 -1,6 1,5 7,8 13,8 1,0 1,1 2,3 0,3 11,22 14,23 0,1 1,2 2,4 2,2 7,9 9,13 1,1 2,2 2,2 0,1 0,1 0,1 1,0 3,3 6,6 3,2 8,7 11,9 3,3 7,6 9,8 2,2 5,5 6,6 2,1 4,2 5,3 1,1 2,2 2,2 0,0 2,1 4,3 1,1 4,3 5,3 1,1 3,2 5,3 1,1 5,4 8,5 3,2 6,4 7,4 0,1 2,2 3,3 2,0 4,1 4,1 0,1 3,2 7,4 4,2 7,4 8,5 2,1 5,3 9,3 2,1 3,1 3,1 0,1 -4,7 -6,10 -2,1 -4,4 -5,5 -1,2 -4,5 -6,8 -4,4 -4,4 -4,9 0,5 1,6 4,6 4,1 9,0 10,-1 3,-1 8,-6 11,-11 2,-2 3,-4 4,-4 0,-1 2,-3 5,-7 5,-6 8,-8 11,-7 2,0 5,1 7,1 3,0 4,0 3,2 -1,0 -1,1 -1,1 -1,3 -4,7 -12,15 -6,6 -6,8 -3,12 2,2 3,2 6,2 1,0 4,0 4,-1 1,0 2,0 2,0 2,0 8,-3 10,-4 0,-1 3,-4 4,-8 2,-4 4,-7 8,-10 2,-3 4,-5 4,-5 0,-1 2,-1 5,-1 16,0 34,-1 43,-2 3,-1 6,-1 7,-1 2,0 4,-1 6,-1 2,-1 6,-1 9,-1 6,-1 19,-3 20,-3 0,-1 1,-1 1,-1 1,0 4,-1 7,-1l6 -1 2 5c2,3 3,6 3,7 0,1 1,3 2,5 1,2 2,4 2,7 0,5 2,7 5,9 1,0 3,1 3,2 0,1 4,0 8,-2 3,-2 4,-4 4,-9 0,-5 -2,-11 -7,-21 -2,-3 -3,-6 -3,-8 -1,-2 -1,-3 2,-3 1,-1 2,-1 3,-1 2,0 6,5 7,9 1,2 1,4 2,4 0,0 0,1 0,2 0,3 3,8 5,10 3,3 7,5 11,5 9,0 14,-8 11,-14 -1,-3 -10,-12 -17,-18 -4,-3 -3,-5 3,-8 3,-1 6,-3 8,-3 2,-1 3,-2 4,-2 1,-1 3,-2 6,-3 3,-1 6,-2 7,-3 0,0 1,0 2,0 0,0 2,-1 3,-2 1,-1 3,-2 3,-2 2,0 15,-7 17,-9 1,0 3,-2 5,-3 7,-4 17,-11 21,-15 2,-3 5,-5 6,-5 2,-1 3,-3 1,-4 -1,0 -4,0 -7,0 -6,0 -6,0 -8,-1 -1,-1 -2,-3 -3,-4 0,-2 0,-2 3,-4 2,-1 6,-3 9,-5 4,-2 7,-4 8,-5 1,0 2,-1 2,-1 1,0 10,-5 11,-6 1,-2 6,-5 8,-5 1,-1 2,-2 2,-2 2,-3 1,-4 -3,-3 -6,1 -19,1 -32,1 -8,0 -15,0 -15,0 0,0 8,-7 10,-8 1,0 2,-1 2,-1 1,-1 4,-3 7,-5 3,-2 7,-5 9,-7 14,-14 14,-14 14,-16 -1,-1 -4,-2 -8,-2 -2,1 -8,1 -14,1 -11,0 -18,1 -21,2 -1,0 -1,0 -1,0 0,-1 9,-10 12,-12 5,-4 6,-4 17,-9 5,-3 11,-6 12,-7 2,-2 2,-2 1,-3 -1,-1 -2,-2 -2,-2 0,-1 -3,-3 -5,-3 -39,1 -39,1 -51,6 -3,1 -4,1 -2,-1 1,-1 4,-4 6,-7 3,-3 14,-15 20,-20 0,0 3,-3 6,-5 4,-2 6,-4 6,-4 0,-2 -6,-5 -7,-4 -1,1 -2,1 -10,3 -2,0 -7,1 -9,1 -3,1 -6,1 -7,1 0,0 -2,0 -3,0 -1,1 -4,1 -8,2 -3,0 -7,1 -10,1 -2,1 -6,2 -8,3 -2,0 -6,2 -10,5 -4,2 -8,4 -8,4 0,0 1,-3 4,-7 2,-3 4,-6 4,-7 0,0 0,-1 1,-1 0,0 1,-1 2,-3 3,-4 5,-6 7,-8 2,-2 2,-3 2,-3 0,0 2,-2 4,-4 2,-2 5,-5 7,-8 2,-3 3,-4 2,-4 -1,-2 -2,-2 -9,0 -6,1 -6,1 -25,10 -4,2 -8,4 -8,4 0,0 -3,1 -5,2 -2,1 -5,2 -7,3 -4,1 -9,5 -9,6 -1,0 -1,0 -1,0 -1,0 -3,2 -5,3 -2,1 -4,2 -4,2 -1,-1 21,-29 27,-35 2,-2 5,-5 6,-5 2,-1 4,-5 2,-5 -3,0 -4,0 -6,0l0 0zm-6 8c0,0 -1,1 -2,2 0,1 -1,2 -2,2 -4,5 -6,8 -6,8 0,0 -1,0 -1,1 0,1 -4,7 -7,10 -1,1 -2,2 -2,3 0,0 -2,3 -4,6 -2,3 -4,6 -4,6 0,1 -1,1 -1,1 -1,0 -2,4 -2,6 1,1 4,1 7,-1 2,-1 11,-8 12,-10 1,0 22,-10 23,-10 0,0 3,-2 7,-4 4,-1 8,-3 9,-4 2,0 5,-2 7,-3 2,-1 5,-2 6,-2 2,0 2,0 1,2 -1,1 -2,3 -3,3 0,0 -1,2 -3,4 -1,1 -3,4 -5,6 -2,2 -4,4 -4,4 0,1 0,2 -1,3 -1,0 -3,4 -6,7 -5,8 -9,14 -11,16 -3,2 -2,4 1,4 1,0 2,0 3,-1 0,0 3,-2 6,-3 3,-2 8,-5 11,-6 5,-5 14,-7 26,-8 4,-1 11,-1 15,-2 8,-2 17,-2 17,-2 0,1 -1,2 -3,3 -6,6 -19,19 -25,26 -4,4 -8,8 -9,9 -1,1 -2,1 -2,2 0,0 -1,1 -2,2 -1,1 -1,4 1,4 1,0 3,-1 4,-2 2,-1 5,-3 8,-4 15,-6 16,-6 35,-7 9,0 17,0 18,0 2,1 1,3 -4,6 -1,0 -3,1 -4,2 -3,1 -9,4 -13,7 -6,3 -21,17 -21,20 0,1 0,1 3,1 2,0 4,0 6,0 2,-1 11,-1 18,-2 13,0 15,0 15,1 0,2 -12,13 -19,18 -3,1 -5,3 -6,4 -2,2 -9,6 -10,6 0,0 0,1 0,1 0,0 -5,2 -6,2 0,0 -3,3 -3,4 0,0 1,1 2,1 2,1 32,2 41,1 9,-1 9,0 0,5 -8,4 -9,5 -10,6 -1,1 -5,3 -11,6 -11,5 -11,6 -9,11 2,4 7,7 11,7l4 1 -4 3c-2,1 -4,3 -4,3 0,1 -1,1 -1,1 -1,0 -10,6 -11,7 0,1 -2,2 -5,3 -2,1 -5,3 -6,4 -3,2 -5,3 -7,4 -2,0 -4,2 -6,3 -2,1 -6,2 -8,3 -2,1 -7,3 -11,5 -4,2 -8,4 -9,4 -2,1 -7,3 -15,7 -3,1 -6,2 -7,3 -1,0 -3,0 -3,1 0,0 -1,0 -2,0 -1,0 -2,1 -3,1 -1,1 -3,2 -4,2 -2,1 -5,2 -6,3 -2,1 -5,2 -6,2 -2,0 -5,1 -8,2 -11,2 -23,5 -36,6 -2,0 -7,1 -12,2 -5,1 -9,1 -10,1 -1,0 -6,0 -12,1 -22,0 -43,0 -49,-1 -3,-1 -6,-1 -7,-2 -2,0 -12,-4 -13,-4 -1,-1 -1,-1 -1,-1 0,1 -1,0 -3,0 -2,-1 -3,-1 -3,-1 0,0 0,0 -1,0 -1,-1 -2,-1 -2,-1 -1,0 -2,0 -3,-1 -1,0 -2,-1 -3,-1 -3,0 -13,-4 -16,-7 -1,0 -2,-1 -3,-1 0,0 -1,-1 -2,-1 -1,-1 -1,-1 -1,0 0,0 -1,0 -1,-1 -1,-1 -4,-2 -6,-3 -2,-1 -5,-3 -5,-3 -1,-1 -3,-2 -5,-3 -2,-1 -5,-3 -7,-4 -2,-2 -4,-3 -4,-3 0,0 -2,-1 -4,-2 -1,-1 -3,-3 -4,-3 -3,-2 -8,-6 -8,-7 0,0 -1,-1 -3,-2 -1,-1 -3,-1 -3,-1 0,-1 6,-4 8,-4 4,-1 8,-2 8,-3 0,0 1,-1 2,-1 2,-1 3,-2 3,-2 0,-1 0,-1 1,-1 1,0 2,0 1,1 0,0 1,1 2,2 2,2 5,3 7,1 2,-1 2,-3 0,-3 -4,0 -5,-5 -3,-7 2,-2 3,-7 1,-9 -3,-3 -8,1 -8,7 0,1 0,2 -1,3 -1,0 -3,2 -5,3 -2,2 -4,3 -6,3 -1,0 -5,2 -8,3 -5,3 -5,3 -6,2 -1,-1 -3,-2 -4,-4 -2,-1 -6,-5 -9,-7 -3,-3 -6,-6 -6,-7 -1,-1 -3,-2 -3,-4 -1,-1 -2,-2 -2,-2 -1,-1 -10,-13 -10,-15 0,0 0,-1 -1,-1 0,0 -9,-12 -9,-13 0,0 -1,0 -1,0 0,0 -2,-3 -3,-5l-3 -5 3 -1c3,-1 5,-2 6,-5 0,-1 1,-1 3,0 2,0 4,0 6,0 1,0 5,-1 9,-1 7,0 15,-1 16,-2 0,-1 1,-1 1,-1 1,0 2,0 2,-1 1,0 3,0 3,0 2,0 8,-3 15,-6 12,-6 19,-12 26,-23 4,-4 7,-8 7,-8 0,-1 1,-1 1,-1 0,-1 4,-8 5,-10 2,-1 3,-4 3,-5 0,-1 1,-2 2,-3 3,-3 3,-4 3,-5 0,0 1,-3 3,-5 1,-3 2,-6 2,-6 0,-1 2,-4 4,-9 2,-4 4,-8 4,-9 0,-1 1,-3 2,-4l2 -1 -1 4c0,3 -1,6 -1,6 0,1 0,5 -1,8 0,3 -1,6 -1,7 0,0 0,3 -1,8 0,6 0,8 -2,11 -2,4 -2,5 -1,6 2,3 4,2 9,-4 1,-1 1,-2 1,-3 0,0 1,-1 2,-2 1,-1 2,-3 3,-5 1,-2 2,-3 3,-3 0,0 1,-2 2,-3 2,-6 3,-7 4,-7 0,0 0,0 0,-1 0,0 1,-2 2,-3 1,-1 4,-4 5,-6 2,-3 3,-5 4,-5 0,0 4,-5 9,-9 5,-5 10,-9 10,-9 1,0 0,3 -1,4 0,1 -3,6 -3,7 0,1 0,1 0,1 -1,1 -6,10 -7,13 0,1 -1,4 -2,6 -1,2 -2,4 -2,5 0,0 0,2 -1,3 -2,4 -2,6 0,6 2,0 4,-1 7,-5 1,-2 6,-7 10,-11 4,-4 7,-8 7,-8 0,-1 15,-16 17,-18 1,0 3,-1 5,-3 1,-1 3,-2 5,-2 1,-1 3,-2 4,-3 0,-1 1,-1 1,-1 0,2 -1,4 -7,16 -6,14 -8,19 -4,20 2,1 5,0 9,-4 2,-3 12,-11 17,-15 2,-1 4,-4 6,-6 2,-1 4,-3 4,-3 0,0 2,-1 3,-2 4,-4 5,-4 8,-6 1,0 3,-1 3,-1 0,-1 10,-5 10,-5 1,1 0,3 -2,6 -1,1 -3,4 -4,6 -1,3 -2,6 -3,6 0,1 -1,2 -1,3 0,1 -2,3 -3,4 -1,2 -2,4 -2,6 0,1 -1,2 -2,3 -1,1 -2,2 -2,3 0,1 -1,3 -2,5 -2,3 -2,4 -2,5 2,2 4,1 5,-1 4,-5 14,-15 22,-23 2,-1 8,-5 9,-5 0,0 2,-2 4,-4 3,-3 6,-4 10,-6 3,-1 6,-2 7,-3 1,0 3,-2 5,-2 3,-1 5,-2 6,-3 3,-1 4,-2 4,-1l0 0zm12 233c1,2 2,3 3,4 1,1 5,4 9,7 7,7 8,10 6,11 0,1 -1,2 -1,2 0,3 -8,4 -11,1 -2,-2 -4,-6 -5,-10 -1,-2 -2,-4 -2,-5 -1,0 -2,-2 -2,-4 -1,-3 -4,-6 -5,-5 -1,0 -1,0 -1,0 0,-1 6,-4 7,-4 0,0 1,2 2,3l0 0zm-21 13c3,5 4,6 4,9 0,1 1,2 1,3 1,0 2,2 2,3 0,1 1,2 1,3 1,3 1,5 0,6 -1,2 -4,3 -5,3 -2,0 -4,-4 -6,-11 -1,-3 -2,-7 -3,-8 -3,-4 -4,-7 -4,-9 0,-3 0,-3 4,-5l4 -1 0 2c0,1 1,3 2,5l0 0zm-167 -1c0,0 2,1 4,2 1,0 3,1 4,1 3,0 2,1 -2,3 -3,1 -4,2 -4,3 -1,2 -3,5 -7,9 -1,1 -2,3 -3,4 -1,3 -6,8 -7,8 0,0 -1,0 -2,1 0,1 -2,1 -4,1l-4 0 0 -4c0,-3 1,-4 5,-8 4,-5 12,-14 12,-15 0,0 1,-2 2,-3 2,-2 2,-3 3,-2 1,0 2,1 3,0zm40 9l5 1 -3 1c-3,1 -4,3 -5,5 -1,1 -2,3 -4,5 -1,1 -2,2 -2,3 0,1 -4,8 -5,8 -3,0 -5,1 -6,1 -2,1 -6,1 -7,0 -1,-1 -1,-1 1,-4 2,-2 4,-4 4,-4 1,-1 7,-10 8,-11 1,-1 2,-3 3,-4 2,-2 2,-2 4,-2 1,1 4,1 7,1l0 0z"/><path class="fil0" d="M220 209c-1,1 -1,1 -1,1 -3,0 -7,1 -8,2 -1,0 -2,1 -2,1 -1,0 -1,1 -2,2 -1,1 -2,2 -3,2 -1,0 -7,5 -10,9 -2,2 -4,4 -6,4 -2,1 -3,2 -3,3 0,1 -1,2 -2,2 -1,0 -1,1 -1,2 0,4 0,6 1,6 0,0 0,1 0,1 -1,1 1,5 3,6 2,2 4,2 12,1 12,-1 18,-3 24,-6 7,-4 8,-5 9,-16 0,-3 0,-4 -1,-5 0,-1 -1,-3 -2,-5 -1,-7 -6,-12 -8,-10l0 0zm1 8c1,1 2,1 2,1 0,0 0,1 0,1 0,0 0,1 1,1 0,0 0,0 0,1 -1,0 -1,2 1,4 1,3 1,5 1,6 0,2 -4,10 -6,11 -5,2 -10,3 -18,4 -1,0 -4,0 -5,0 -5,1 -8,0 -10,-6 -1,-3 -1,-5 -1,-5 0,0 2,-2 5,-3 3,-2 6,-3 6,-3 0,-2 15,-12 18,-13 4,-2 5,-1 6,1l0 0z"/><path class="fil0" d="M212 222c-2,0 -5,1 -6,2 -1,1 -4,3 -6,5 -2,1 -4,3 -5,4 0,0 -1,1 -2,1 -2,0 -2,0 -2,3l0 3 3 -1c3,0 6,-1 9,-1 9,0 12,-1 16,-5 2,-3 3,-5 3,-6 0,-1 0,-2 -1,-2 0,0 -1,-1 -1,-2 0,-1 -1,-2 -2,-2 -2,-1 -2,-1 -6,1l0 0z"/><path class="fil0" d="M127 237c-1,0 -2,1 -2,1 0,0 -1,1 -2,2 -1,2 -2,7 -1,7 0,0 0,1 0,2 0,1 3,4 6,6 2,1 4,1 7,-1 1,-1 3,-3 5,-3 1,-1 3,-2 3,-3 0,0 0,-1 0,-2 0,-1 0,-1 0,-1 -1,0 -1,-1 -1,-2 1,-1 0,-2 -2,-4 -3,-2 -3,-2 -8,-3 -3,0 -4,0 -5,1z"/></g></svg>
